name rise30.6535peak61.5555fall82.9339.mot
datacolumns 19
datarows 21
range 3.57498600000000 3.60831500000000
endheader
time	ground_force1_vx	ground_force1_vy	ground_force1_vz	ground_force1_px	ground_force1_py	ground_force1_pz	ground_force2_vx	ground_force2_vy	ground_force2_vz	ground_force2_px	ground_force2_py	ground_force2_pz	ground_torque1_x	ground_torque1_y	ground_torque1_z	ground_torque2_x	ground_torque2_y	ground_torque2_z	
3.57498600000000	6.38509000000000	704.14145799999994	40.55373600000000	0.20323200000000	0.00000000000000	0.11593600000000	0.00000000000000	0.00000000000000	0.00000000000000	0.00000000000000	0.00000000000000	0.00000000000000	0.00000000000000	14.83594900000000	0.00000000000000	0.00000000000000	0.00000000000000	0.00000000000000	
3.57665100000000	6.02159900000000	705.23637599999995	40.52179900000000	0.20230100000000	0.00000000000000	0.11589500000000	0.00000000000000	0.00000000000000	0.00000000000000	0.00000000000000	0.00000000000000	0.00000000000000	0.00000000000000	14.87005100000000	0.00000000000000	0.00000000000000	0.00000000000000	0.00000000000000	
3.57831600000000	5.64926300000000	706.35983099999999	40.49356800000000	0.20135600000000	0.00000000000000	0.11585500000000	0.00000000000000	0.00000000000000	0.00000000000000	0.00000000000000	0.00000000000000	0.00000000000000	0.00000000000000	14.90744200000000	0.00000000000000	0.00000000000000	0.00000000000000	0.00000000000000	
3.57998200000000	5.26792900000000	707.51028499999995	40.46893400000000	0.20039900000000	0.00000000000000	0.11581500000000	0.00000000000000	0.00000000000000	0.00000000000000	0.00000000000000	0.00000000000000	0.00000000000000	0.00000000000000	14.94811200000000	0.00000000000000	0.00000000000000	0.00000000000000	0.00000000000000	
3.58165400000000	4.87747300000000	708.68625199999997	40.44779200000000	0.19942900000000	0.00000000000000	0.11577500000000	0.00000000000000	0.00000000000000	0.00000000000000	0.00000000000000	0.00000000000000	0.00000000000000	0.00000000000000	14.99204800000000	0.00000000000000	0.00000000000000	0.00000000000000	0.00000000000000	
3.58331400000000	4.47779700000000	709.88630499999999	40.43003500000000	0.19844900000000	0.00000000000000	0.11573600000000	0.00000000000000	0.00000000000000	0.00000000000000	0.00000000000000	0.00000000000000	0.00000000000000	0.00000000000000	15.03923400000000	0.00000000000000	0.00000000000000	0.00000000000000	0.00000000000000	
3.58497800000000	4.06883100000000	711.10907499999996	40.41555600000000	0.19746000000000	0.00000000000000	0.11569700000000	0.00000000000000	0.00000000000000	0.00000000000000	0.00000000000000	0.00000000000000	0.00000000000000	0.00000000000000	15.08964700000000	0.00000000000000	0.00000000000000	0.00000000000000	0.00000000000000	
3.58664900000000	3.65053200000000	712.35325699999999	40.40425000000000	0.19646300000000	0.00000000000000	0.11565800000000	0.00000000000000	0.00000000000000	0.00000000000000	0.00000000000000	0.00000000000000	0.00000000000000	0.00000000000000	15.14326000000000	0.00000000000000	0.00000000000000	0.00000000000000	0.00000000000000	
3.58831500000000	3.22288300000000	713.61761000000001	40.39601600000000	0.19545800000000	0.00000000000000	0.11561900000000	0.00000000000000	0.00000000000000	0.00000000000000	0.00000000000000	0.00000000000000	0.00000000000000	0.00000000000000	15.20004100000000	0.00000000000000	0.00000000000000	0.00000000000000	0.00000000000000	
3.58997900000000	2.78588800000000	714.90095899999994	40.39075200000000	0.19444900000000	0.00000000000000	0.11558100000000	0.00000000000000	0.00000000000000	0.00000000000000	0.00000000000000	0.00000000000000	0.00000000000000	0.00000000000000	15.25995300000000	0.00000000000000	0.00000000000000	0.00000000000000	0.00000000000000	
3.59164800000000	2.33958100000000	716.20219599999996	40.38836200000000	0.19343500000000	0.00000000000000	0.11554200000000	0.00000000000000	0.00000000000000	0.00000000000000	0.00000000000000	0.00000000000000	0.00000000000000	0.00000000000000	15.32295500000000	0.00000000000000	0.00000000000000	0.00000000000000	0.00000000000000	
3.59331400000000	1.88401200000000	717.52028299999995	40.38875300000000	0.19241800000000	0.00000000000000	0.11550300000000	0.00000000000000	0.00000000000000	0.00000000000000	0.00000000000000	0.00000000000000	0.00000000000000	0.00000000000000	15.38899900000000	0.00000000000000	0.00000000000000	0.00000000000000	0.00000000000000	
3.59498700000000	1.41925900000000	718.85424699999999	40.39183600000000	0.19140000000000	0.00000000000000	0.11546400000000	0.00000000000000	0.00000000000000	0.00000000000000	0.00000000000000	0.00000000000000	0.00000000000000	0.00000000000000	15.45803400000000	0.00000000000000	0.00000000000000	0.00000000000000	0.00000000000000	
3.59664800000000	0.94541800000000	720.20318699999996	40.39752800000000	0.19038100000000	0.00000000000000	0.11542400000000	0.00000000000000	0.00000000000000	0.00000000000000	0.00000000000000	0.00000000000000	0.00000000000000	0.00000000000000	15.53000200000000	0.00000000000000	0.00000000000000	0.00000000000000	0.00000000000000	
3.59831500000000	0.46260400000000	721.56626900000003	40.40575300000000	0.18936300000000	0.00000000000000	0.11538500000000	0.00000000000000	0.00000000000000	0.00000000000000	0.00000000000000	0.00000000000000	0.00000000000000	0.00000000000000	15.60484000000000	0.00000000000000	0.00000000000000	0.00000000000000	0.00000000000000	
3.59997800000000	-0.02904800000000	722.94272400000000	40.41643800000000	0.18834600000000	0.00000000000000	0.11534500000000	0.00000000000000	0.00000000000000	0.00000000000000	0.00000000000000	0.00000000000000	0.00000000000000	0.00000000000000	15.68248300000000	0.00000000000000	0.00000000000000	0.00000000000000	0.00000000000000	
3.60164700000000	-0.52938300000000	724.33185100000003	40.42952100000000	0.18733300000000	0.00000000000000	0.11530400000000	0.00000000000000	0.00000000000000	0.00000000000000	0.00000000000000	0.00000000000000	0.00000000000000	0.00000000000000	15.76285500000000	0.00000000000000	0.00000000000000	0.00000000000000	0.00000000000000	
3.60331900000000	-1.03823400000000	725.73301500000002	40.44494600000000	0.18632300000000	0.00000000000000	0.11526300000000	0.00000000000000	0.00000000000000	0.00000000000000	0.00000000000000	0.00000000000000	0.00000000000000	0.00000000000000	15.84588100000000	0.00000000000000	0.00000000000000	0.00000000000000	0.00000000000000	
3.60498200000000	-1.55541500000000	727.14563899999996	40.46266400000000	0.18531800000000	0.00000000000000	0.11522200000000	0.00000000000000	0.00000000000000	0.00000000000000	0.00000000000000	0.00000000000000	0.00000000000000	0.00000000000000	15.93147600000000	0.00000000000000	0.00000000000000	0.00000000000000	0.00000000000000	
3.60665000000000	-2.08072400000000	728.56921100000000	40.48263600000000	0.18431900000000	0.00000000000000	0.11518000000000	0.00000000000000	0.00000000000000	0.00000000000000	0.00000000000000	0.00000000000000	0.00000000000000	0.00000000000000	16.01955400000000	0.00000000000000	0.00000000000000	0.00000000000000	0.00000000000000	
3.60831500000000	-2.61394900000000	730.00327300000004	40.50483300000000	0.18332600000000	0.00000000000000	0.11513700000000	0.00000000000000	0.00000000000000	0.00000000000000	0.00000000000000	0.00000000000000	0.00000000000000	0.00000000000000	16.11002200000000	0.00000000000000	0.00000000000000	0.00000000000000	0.00000000000000	
